<svg xmlns="http://www.w3.org/2000/svg" viewBox="0 0 192 103">
  <path fill="none" stroke="#222" stroke-width="10" stroke-linecap="round"
    d="M184.6 95.5c0-48.6-40.4-88-89-88S7.4 46.9 7.4 95.5"/>

  <path fill="none" stroke="#666" stroke-width="2"
    d="M184.6 95.5c0-48.6-40.4-88-89-88S7.4 46.9 7.4 95.5"/>


      <circle cx="7.4" cy="95.5" r="2"/>
      <circle cx="9" cy="78.7" r="2"/>
      <circle cx="13.6" cy="63" r="2"/>
      <circle cx="20.9" cy="48.7" r="2"/>
      <circle cx="30.6" cy="36" r="2"/>
      <circle cx="42.4" cy="25.3" r="2"/>
      <circle cx="56" cy="16.9" r="2"/>
      <circle cx="71" cy="10.9" r="2"/>
      <circle cx="87.3" cy="7.9" r="2"/>
      <circle cx="104.3" cy="7.9" r="2"/>
      <circle cx="120.6" cy="11.1" r="2"/>
      <circle cx="135.7" cy="17.1" r="2"/>
      <circle cx="149.3" cy="25.5" r="2"/>
      <circle cx="161.2" cy="36.3" r="2"/>
      <circle cx="170.9" cy="48.9" r="2"/>
      <circle cx="178.3" cy="63.2" r="2"/>
      <circle cx="182.9" cy="78.8" r="2"/>
      <circle cx="184.6" cy="95.5" r="2"/>
</svg>