<?xml version="1.0" encoding="utf-8"?>
<svg version="1.1" id="Path" xmlns="http://www.w3.org/2000/svg" xmlns:xlink="http://www.w3.org/1999/xlink" x="0px" y="0px"
	 viewBox="0 0 244.4 35.9" style="enable-background:new 0 0 244.4 35.9;" xml:space="preserve">
<style type="text/css">
	.st0{fill:#558BBE;}
	.st1{fill:#84BB54;}
	.st2{fill:#E64849;}
	.st3{fill:#E5E5E5;}
	.st4{fill:#E74849;}
</style>
<path id="XMLID_23_" class="st0" d="M226.5,0.1c2.4,0,4.8,0.5,6.9,1.4c2.1,0.9,4,2.2,5.7,3.8c1.7,1.7,3,3.6,3.8,5.7
	c1,2.2,1.4,4.5,1.4,6.9c0,2.5-0.5,4.8-1.4,7c-0.9,2.1-2.1,4-3.8,5.7c-1.6,1.6-3.5,3-5.7,3.8c-2.2,1-4.5,1.4-6.9,1.4h-7.2v-0.1h-2.9
	V0.1H226.5z M226.5,28.7c5.9,0,10.7-4.9,10.7-10.8c0-5.9-4.8-10.7-10.7-10.7h-3v21.5H226.5z"/>
<path id="XMLID_21_" class="st1" d="M209.7,7.2H193v6.6h13.8v7.2H193v7.8h16.6v7.2h-23.7V0.1h23.9V7.2z"/>
<path id="XMLID_19_" class="st2" d="M166.9,28.7h13.3v7.1h-20.5V0.1h7.2V28.7z"/>
<path id="XMLID_17_" class="st3" d="M135.4,19.5l-2.8,2.8v13.5h-7.2V0.1h7.2v11.5l10.5-11.5h9.7l-12.5,14l12.8,21.8h-8.5L135.4,19.5
	z"/>
<path id="XMLID_14_" class="st3" d="M112.5,35.9l-6.7-14.4h-3.6v14.3h-7.2V0h13.5c5.9,0,10.7,4.9,10.7,10.8c0,4.3-2.6,8.1-6.3,9.8
	l7.1,15.3H112.5z M102.3,7.2v7.2h6.3c2,0,3.6-1.6,3.6-3.6s-1.6-3.6-3.6-3.6H102.3z"/>
<polyline id="XMLID_4_" class="st0" points="81.6,35.9 78.5,29.1 64.7,29.1 64.7,29.1 57.1,29.1 53.7,35.9 "/>
<polyline id="XMLID_3_" class="st1" points="75.5,7.6 71.6,15.1 81.4,35.9 88.9,35.9 "/>
<polyline id="XMLID_5_" class="st4" points="71.9,0 57.1,29.1 64.7,29.1 75.6,7.7 "/>
<path id="XMLID_8_" class="st3" d="M43,0.1c5.9,0,10.7,4.9,10.7,10.8c0,5.9-4.8,10.7-10.7,10.7h-4.4v14.3h-7.2V0.1H43z M43,14.4
	c1.9,0,3.6-1.6,3.6-3.6c0-2-1.6-3.6-3.6-3.6h-4.4v7.2H43z"/>
<path id="XMLID_6_" class="st3" d="M12,20.5c-1.1-0.3-3.3-0.8-5.2-2.2c-2.8-1.8-4.3-4.5-4.4-7.8C2.2,7.8,3.1,5.4,4.8,3.5
	c2.6-2.7,6.3-3.4,8-3.4c5,0,7.9,1.8,10.4,3.5l1.1,0.7l-3.6,5.9l-1.2-0.8C17.3,7.9,15.9,7,12.9,7c-0.4,0-2.2,0.3-3.1,1.3
	c-0.3,0.3-0.6,0.8-0.6,2c0,1.8,1.3,2.8,4.4,3.6c0.4,0.1,0.7,0.2,1,0.3c3.3,1.1,5.9,2.7,7.7,4.6c1.8,2,2.7,4.3,2.7,6.8
	c0,2.4-1,4.9-2.8,6.9c-2,2.3-4.8,3.6-7.9,3.6c-1.5,0-3.6-0.1-6.1-0.8c-3.1-1-5.9-2.7-8.2-5.2l5-4.7C8.7,29,12.8,29,14.3,29
	c2.9,0,3.8-2.6,3.8-3.5c0-1.9-2.1-3.6-5.7-4.8l-0.1,0L12,20.5z"/>
</svg>
