<svg xmlns="http://www.w3.org/2000/svg" viewBox="0 0 1240 200">
  <style>
    path{fill:#fff}
  </style>
  <path d="M1219.3 0h-80c-11 0-20.3 9-20.3 20v160c0 5.3 2.3 10.4 6 14.2h.1a20.2 20.2 0 0 0 28.3 0l80.1-80c3.9-3.9 5.7-9 5.7-14.1h-.2V20c0-11-8.6-20-19.7-20zm-80 195a15 15 0 1 1 0-30 15 15 0 0 1 0 30zm0-80a15 15 0 1 1 0-30 15 15 0 0 1 0 30zm0-80a15 15 0 1 1 0-30 15 15 0 0 1 0 30zm59.7 56.7l-40 40V40h40v51.7zm20.3 23.3a15 15 0 1 1 0-30 15 15 0 0 1 0 30zm0-80a15 15 0 1 1 0-30 15 15 0 0 1 0 30zM1059.3 0h-80c-11 0-20.3 9-20.3 20v160c0 11 9.3 20 20.3 20h80c11 0 20-9 20-20s-9-20-20-20H999v-40h60.3c11 0 20-9 20-20s-9-20-20-20H999V40h60.3a20 20 0 1 0 0-40zm-80 195a15 15 0 1 1 0-30 15 15 0 0 1 0 30zm0-80a15 15 0 1 1 0-30 15 15 0 0 1 0 30zm0-80a15 15 0 1 1 0-30 15 15 0 0 1 0 30zm80 130a15 15 0 1 1 0 30 15 15 0 0 1 0-30zm0-80a15 15 0 1 1 0 30 15 15 0 0 1 0-30zm0-50a15 15 0 1 1 0-30 15 15 0 0 1 0 30zM899.3 160H839V20c0-11-8.8-20-19.8-20h-.1A20 20 0 0 0 799 20v160c0 11 9.3 20 20.3 20h80a20 20 0 1 0 0-40zm-80 35a15 15 0 1 1 0-30 15 15 0 0 1 0 30zm0-80a15 15 0 1 1 0-30 15 15 0 0 1 0 30zm0-80a15 15 0 1 1 0-30 15 15 0 0 1 0 30zm80 160a15 15 0 1 1 0-30 15 15 0 0 1 0 30zM739.3 0A21 21 0 0 0 725 5.7l-46 45V20c0-11-8.8-20-19.8-20h-.1A20 20 0 0 0 639 20v160c0 11 9.1 20 20.2 20h-.1c11 0 19.9-9 19.9-20v-30.7l46 44.9a20.1 20.1 0 0 0 34.2-14.4c0-5.3-2.1-10.3-5.7-14.1L689 100l64.6-65.9A20 20 0 0 0 739.3 0zm-80 195a15 15 0 1 1 0-30 15 15 0 0 1 0 30zm0-80a15 15 0 1 1 0-30 15 15 0 0 1 0 30zm0-80a15 15 0 1 1 0-30 15 15 0 0 1 0 30zm80 130a15 15 0 1 1 0 30 15 15 0 0 1 0-30zm0-130a15 15 0 1 1 0-30 15 15 0 0 1 0 30zM579.3 0h-80c-11 0-20.3 9-20.3 20v160c0 11 9.1 20 20.2 20h-.1c11 0 19.9-9 19.9-20v-30.7l46 45a20.1 20.1 0 0 0 34.2-14.4c0-5.3-2.1-10.3-5.7-14.1L548.6 120h30.7c11 0 19.7-9 19.7-20V20c0-11-8.7-20-19.7-20zm-80 195a15 15 0 1 1 0-30 15 15 0 0 1 0 30zm0-80a15 15 0 1 1 0-30 15 15 0 0 1 0 30zm0-80a15 15 0 1 1 0-30 15 15 0 0 1 0 30zm80 130a15 15 0 1 1 0 30 15 15 0 0 1 0-30zM559 80h-40V40h40v40zm20.3 35a15 15 0 1 1 0-30 15 15 0 0 1 0 30zm0-80a15 15 0 1 1 0-30 15 15 0 0 1 0 30zM419.3 0h-80c-11 0-20.3 9-20.3 20v160c0 11 9.1 20 20.2 20h-.1c11 0 19.9-9 19.9-20v-60h40v60c0 11 9.1 20 20.2 20h-.1c11 0 19.9-9 19.9-20V20c0-11-8.7-20-19.7-20zm-80 195a15 15 0 1 1 0-30 15 15 0 0 1 0 30zm0-80a15 15 0 1 1 0-30 15 15 0 0 1 0 30zm0-80a15 15 0 1 1 0-30 15 15 0 0 1 0 30zM399 80h-40V40h40v40zm20.3 115a15 15 0 1 1 0-30 15 15 0 0 1 0 30zm0-80a15 15 0 1 1 0-30 15 15 0 0 1 0 30zm0-80a15 15 0 1 1 0-30 15 15 0 0 1 0 30zM259.3 0h-80c-11 0-20.3 9-20.3 20v160c0 11 9.1 20 20.2 20h-.1c11 0 19.9-9 19.9-20v-60h60.3c11 0 19.7-9 19.7-20V20c0-11-8.7-20-19.7-20zm-80 195a15 15 0 1 1 0-30 15 15 0 0 1 0 30zm0-80a15 15 0 1 1 0-30 15 15 0 0 1 0 30zm0-80a15 15 0 1 1 0-30 15 15 0 0 1 0 30zM239 80h-40V40h40v40zm20.3 35a15 15 0 1 1 0-30 15 15 0 0 1 0 30zm0-80a15 15 0 1 1 0-30 15 15 0 0 1 0 30zM99.3 0h-80C8.3 0-1 9-1 20v80c0 11 9.3 20 20.3 20H79v40H19.3c-11 0-20 9-20 20s9 20 20 20h80c11 0 19.7-9 19.7-20v-80c0-11-8.7-20-19.7-20H39V40h60.3c11 0 20-9 20-20s-9-20-20-20zm-80 115a15 15 0 1 1 0-30 15 15 0 0 1 0 30zm0-80a15 15 0 1 1 0-30 15 15 0 0 1 0 30zm0 160a15 15 0 1 1 0-30 15 15 0 0 1 0 30zm80-110a15 15 0 1 1 0 30 15 15 0 0 1 0-30zm0 80a15 15 0 1 1 0 30 15 15 0 0 1 0-30zm0-130a15 15 0 1 1 0-30 15 15 0 0 1 0 30z"/>
</svg>
