<svg xmlns="http://www.w3.org/2000/svg" viewBox="0 0 1982.8 1487.03">
  <style>
    .st4{fill:#494199}.st6{fill:none}.st7{fill:#5a4bb5}.st10{fill:#7fabb6}.st11{fill:#fefefe}.st18{fill:#4b4851}.st19{fill:#36333e}.st20{fill:#5f8284}.st25{fill:#90dffd}.st26,.st27{fill:none;stroke:#1e0b56;stroke-width:5;stroke-linecap:round;stroke-miterlimit:10}.st27{fill:#1e0b56}
  </style>
  <g id="Base">
    <path id="Bottom_Right" fill="#6fa147" d="M1982.8 877.72v36.92l-991.4 572.39V877.72z"/>
    <path id="Bottom_Front" fill="#c4f792" d="M991.4 877.72v609.31L.01 914.65 0 877.72z"/>
    <path id="Top" fill="#9dd864" d="M1982.8 877.71L991.4 1450.1 0 877.72l991.4-572.39z"/>
  </g>
  <g id="House">
    <g id="Walls">
      <path id="Right_2" fill="#6755ce" d="M1854.88 508.44v369.28l-255.85 147.71-2.16-2.34-.85-366.16z"/>
      <g id="Right_lines">
        <path class="st4" d="M1599.03 951.57v73.88l255.85-147.71v-73.88zM1599.03 933.15l255.85-147.71v-2.92l-255.85 147.71zM1599.03 901.25l255.85-147.71v-2.92l-255.85 147.71zM1599.03 869.15l255.85-147.71v-2.92l-255.85 147.71zM1599.03 837.15l255.85-147.71v-2.92l-255.85 147.71zM1854.88 654.52l-255.85 147.71v2.92l255.85-147.71zM1854.88 622.73l-255.85 147.72v2.92l255.85-147.71zM1854.88 590.52l-255.85 147.71v2.92l255.85-147.71zM1599.03 709.23l255.85-147.71v-2.92l-255.85 147.71z"/>
      </g>
      <path id="Front_1" fill="#7b5eea" d="M1599.03 1025.43L735.56 526.9V157.62l430.77-9.79 432.7 508.32z"/>
      <g id="Front_lines">
        <path class="st6" d="M865.4 154.67l603.2 348.25-48.67-57.17-506.07-292.18zM758.75 157.09l816.98 471.69-48.67-57.18-719.85-415.61zM735.56 335.7l863.47 498.53v-29.08L735.56 306.62zM735.56 157.62v18.08l863.47 498.53v-18.08l-18.41-21.63L753.88 157.2zM735.56 399.8l863.47 498.53v-29.18L735.56 370.62zM735.56 367.7l863.47 498.53v-29.08L735.56 338.62zM735.56 239.7l863.47 498.53v-29.08L735.56 210.62zM735.56 271.7l863.47 498.53v-29.08L735.56 242.62zM735.56 303.7l863.47 498.53v-29.08L735.56 274.62zM1254.34 251.22l-88.01-103.39-87.62 1.99zM1025.38 151.03l282.52 163.12-48.67-57.18-185.39-107.04zM735.56 207.7l863.47 498.53v-29.08L735.56 178.62zM735.56 453.05l863.47 498.52v-18.42L735.56 434.62zM972.06 152.25l389.41 224.82-48.67-57.18-292.29-168.75zM735.56 431.7l863.47 498.53v-28.98L735.56 402.72zM812.08 155.88l710.09 409.97-48.68-57.18-612.96-353.89zM918.73 153.46L1415.03 440l-48.67-57.18-399.17-230.46z"/>
        <path class="st7" d="M735.56 526.9l863.47 498.53v-73.86L735.56 453.05zM735.56 434.62l863.47 498.53v-2.92L735.56 431.7zM735.56 402.72l863.47 498.53v-2.92L735.56 399.8zM735.56 370.62l863.47 498.53v-2.92L735.56 367.7zM735.56 338.62l863.47 498.53v-2.92L735.56 335.7zM735.56 306.62l863.47 498.53v-2.92L735.56 303.7zM735.56 274.62l863.47 498.53v-2.92L735.56 271.7zM735.56 242.62l863.47 498.53v-2.92L735.56 239.7zM735.56 210.62l863.47 498.53v-2.92L735.56 207.7zM735.56 178.62l863.47 498.53v-2.92L735.56 175.7zM753.88 157.2l826.74 477.32-4.89-5.74-816.98-471.69zM807.21 155.99l719.85 415.61-4.89-5.75-710.09-409.97zM860.53 154.78l612.96 353.89-4.89-5.75-603.2-348.25zM913.86 153.57l506.07 292.18-4.9-5.75-496.3-286.54zM967.19 152.36l399.17 230.46-4.89-5.75-389.41-224.82zM1020.51 151.14l292.29 168.75-4.9-5.74-282.52-163.12zM1073.84 149.93l185.39 107.04-4.89-5.75-175.63-101.4z"/>
      </g>
    </g>
    <g id="Roof_1">
      <path id="Right_3" fill="#37313f" d="M1128.39 163.47L1415.97.7l6.57-.7 453.51 533.14v.59l-287.87 168.76z"/>
      <path id="Left_1" fill="#4a4750" d="M651.23 169.38L927.44 9.91 1422.54 0l-288.83 166.12-.31 3.23-482.1.6z"/>
      <g id="Barge">
        <path id="Right_4" class="st10" d="M1582.84 709.32l293.21-168.18v26l-287.84 166.18z"/>
        <path id="Front_2" class="st11" d="M1134.21 200.25l454 533.11v-28.04l-454-533.1-482.98 3.16v28z"/>
      </g>
      <path id="Front_Left" fill="#655e6e" d="M651.23 179.38v-10l482.64-3.36.17.24.41 9.84-.24.15z"/>
      <path id="Front_Right" fill="#5c5666" d="M1134.21 176.25l-.34-10.23 454.34 533.3v10.04z"/>
      <path id="Right_Bottom" fill="#24202e" d="M1588.22 699.32l287.83-166.18v10l-287.84 166.18z"/>
    </g>
  </g>
  <g id="Pathway">
    <path id="Front_3" fill="#e7f3f7" d="M383.77 1099.28l3.63-.19 220.23 126.44v39.93l-223.86-129.25z"/>
    <path id="Top_1" fill="#dce9ef" d="M991.4 748.47l223.86 129.25-607.63 350.81-223.86-129.25z"/>
  </g>
  <g id="Front_Steps">
    <g id="Right">
      <path fill="#26202d" d="M1279.23 766.93v73.85l-95.95 55.4-5.04-76.77z"/>
    </g>
    <path id="Botom_Step_Front" class="st18" d="M959.42 730v36.93l223.86 129.25v-36.93l-.05-1.98-222.34-127.78z"/>
    <path id="Bottom_Step_Top" class="st19" d="M1183.28 859.25L959.42 730l31.98-18.46 2.67-.04 220.33 126.51.89 2.76z"/>
    <path id="Top_Step_Front" class="st18" d="M991.36 674.63v36.93l223.9 129.23-.03-36.91 1.09-.9-223.87-128.63z"/>
    <path id="Top_Step_Top" class="st19" d="M1215.26 803.86L991.4 674.61l63.96-36.93 223.87 129.25z"/>
  </g>
  <g id="Door">
    <g id="Frame_1">
      <path id="Right_6" class="st20" d="M1237.24 747.37l4.12-2.32-.12-199.33-25.98 7.78 4.47 176.63z"/>
      <path id="Top_3" class="st10" d="M1226.3 553.18l14.94-7.46-143.68-82.95-4 2 2.09 6.86z"/>
      <path id="Front_5" class="st11" d="M1093.56 464.77v199.67l7.87 4.55 57.64 1.02 70.29 72.81 7.88 4.55V547.72z"/>
    </g>
    <path id="Door_1" fill="#312b39" d="M1101.44 479.65v189.34l127.92 73.83V553.5z"/>
    <g id="Handle">
      <path id="Right_5" fill="#999" d="M1119.33 600.75l-10.68 6.17-1.5-2.41v-39.66l8.87-5.02h3.31v4l-7.68 4.43v29.45l7.68-.96z"/>
      <path id="Front_4" fill="#b2b2b2" d="M1119.33 559.83l-3-1.75-10.68 6.16v40.93l3 1.75v-40.93z"/>
      <path id="Inside" fill="#7f7f7f" d="M1116.33 595.01l3 1.74-7.68 4.43v-3.47"/>
    </g>
  </g>
  <g id="Window">
    <g id="Right_Window">
      <path id="Right_1" class="st20" d="M1492.72 824.3l4.12-2.32-.12-128.76-25.98 7.79 4.47 98.62z"/>
      <path id="Top_4" class="st10" d="M1484.84 701.01l11.88-7.79-143.68-82.95-4 2 2.09 6.87z"/>
      <path id="Front_7" class="st11" d="M1492.72 824.3V695.65l-143.68-82.95v128.68"/>
      <path id="Glass_1" class="st25" d="M1356.92 627.58v110.34l127.92 73.87V701.44z"/>
    </g>
    <g id="Left_Window">
      <path id="Right_7" class="st20" d="M981.52 528.64l4.12-2.33-.12-128.23-25.97 7.79 4.47 98.62z"/>
      <path id="Top_2" class="st10" d="M973.65 405.87l11.87-7.79-143.67-82.95-4 2 2.09 6.87z"/>
      <path id="Front_6" class="st11" d="M981.52 528.64V400.52l-143.67-82.95v128.68"/>
      <path id="Glass" class="st25" d="M845.72 332.45v110.34l127.93 73.84V406.31z"/>
    </g>
  </g>
  <g id="Lights">
    <g id="Arches">
      <path id="Arch_4" class="st26" d="M1407.14 988.45c-1.11-88.35 92.82-53.56 95.95 55.41"/>
      <path id="Arch_3" class="st26" d="M1279.23 914.59c-1.11-88.35 92.82-53.56 95.95 55.41"/>
      <path id="Arch_2" class="st26" d="M831.5 656.15c-1.11-88.35 92.82-53.56 95.95 55.41"/>
      <path id="Arch_1" class="st26" d="M703.57 582.27c-1.11-88.35 92.82-53.56 95.95 55.41"/>
    </g>
    <g id="Footpath">
      <path id="Footpath_2" class="st27" d="M388.28 1096.68l567.2-327.47"/>
      <path id="Footpath_1" class="st27" d="M612.21 1225.89l566.46-327.04"/>
    </g>
  </g>
</svg>
