<svg xmlns="http://www.w3.org/2000/svg" xmlns:xlink="http://www.w3.org/1999/xlink" viewBox="0 0 1982.8 1487">
  <style>
    .st0{fill:#1e0b56}.st5{clip-path:url(#Right_7_);fill:#494199}.st7{clip-path:url(#Front_6_);fill:#5a4bb5}.st10{fill:#7fabb6}.st11{fill:#fefefe}.st18{fill:#4b4851}.st19{fill:#36333e}.st25{fill:#1e0b56;stroke:#1e0b56;stroke-width:5;stroke-linecap:round;stroke-miterlimit:10}
  </style>
  <g id="Base">
    <path id="Bottom_Right" fill="#6fa147" d="M1982.8 877.7v36.9L991.4 1487l1-609.3z"/>
    <path id="Bottom_Front" fill="#c4f792" d="M992.4 877.7l-1 609.3L0 914.7v-37z"/>
    <path id="Top" fill="#9dd864" d="M1982.8 877.7l-991.4 572.4L0 877.7l991.4-572.4z"/>
  </g>
  <g id="House">
    <g id="Walls">
      <path id="Right_2_" fill="#6755ce" d="M1854.9 508.4v369.3L1599 1025.4l-2.1-2.3-.9-366.2z"/>
      <g id="Right_lines">
        <defs>
          <path id="Right_1_" d="M1854.9 506.2v371.5L1599 1025.4V653.9z"/>
        </defs>
        <clipPath id="Right_7_">
          <use xlink:href="#Right_1_" overflow="visible"/>
        </clipPath>
        <path id="XMLID_398_" class="st5" d="M1065.4 1259.6l1080.9-624-.9 74.4-1080.9 624.1z"/>
        <path id="XMLID_397_" class="st5" d="M1065.4 1238.8l1080.9-624.1-.9 3.4-1080.9 624.1z"/>
        <path id="XMLID_396_" class="st5" d="M1065.4 1206.9l1080.9-624.1-.9 3.4-1080.9 624.1z"/>
        <path id="XMLID_395_" class="st5" d="M1065.4 1174.6l1080.9-624-.9 3.4-1080.9 624.1z"/>
        <path id="XMLID_394_" class="st5" d="M1065.4 1142.6l1080.9-624.1-.9 3.5-1080.9 624z"/>
        <path id="XMLID_393_" class="st5" d="M1066.2 1110.1L2147.1 486l-.9 3.5-1080.9 624z"/>
        <path id="XMLID_392_" class="st5" d="M1065.4 1078.5l1080.9-624-.9 3.4L1064.5 1082z"/>
        <path id="XMLID_391_" class="st5" d="M1065.4 1046.4l1080.9-624-.9 3.4-1080.9 624.1z"/>
        <path id="XMLID_390_" class="st5" d="M1065.4 1014.4l1080.9-624.1-.9 3.5-1080.9 624z"/>
      </g>
      <path id="Front_1_" fill="#7b5eea" d="M1599 1025.4L735.6 526.9V157.6l430.7-9.8L1599 656.1z"/>
      <g id="Front_lines">
        <defs>
          <path id="Front" d="M1599 1025.4L735.6 526.9V157.6l430.7-9.8L1599 656.1z"/>
        </defs>
        <clipPath id="Front_6_">
          <use xlink:href="#Front" overflow="visible"/>
        </clipPath>
        <path id="XMLID_300_" class="st7" d="M1705.6 1013.1L624.7 389l.9 75.5 1080.9 624z"/>
        <path id="XMLID_338_" class="st7" d="M1705.6 991.7l-1080.9-624 .9 3.4 1080.9 624.1z"/>
        <path id="XMLID_339_" class="st7" d="M1705.4 959.7l-1080.9-624 .9 3.4 1080.9 624.1z"/>
        <path id="XMLID_355_" class="st7" d="M1705.6 927.7l-1080.9-624 .9 3.4 1080.9 624.1z"/>
        <path id="XMLID_362_" class="st7" d="M1705.6 895.7l-1080.9-624 .9 3.4 1080.9 624.1z"/>
        <path id="XMLID_363_" class="st7" d="M1705.6 863.7l-1080.9-624 .9 3.4 1080.9 624.1z"/>
        <path id="XMLID_364_" class="st7" d="M1705.6 831.7l-1080.9-624 .9 3.4 1080.9 624.1z"/>
        <path id="XMLID_369_" class="st7" d="M1705.6 799.7l-1080.9-624 .9 3.4 1080.9 624.1z"/>
        <path id="XMLID_370_" class="st7" d="M1705.6 767.7l-1080.9-624 .9 3.4 1080.9 624.1z"/>
        <path id="XMLID_371_" class="st7" d="M1705.6 735.7l-1080.9-624 .9 3.4 1080.9 624.1z"/>
        <path id="XMLID_372_" class="st7" d="M1705.6 703.7L624.7 79.7l.9 3.4 1080.9 624.1z"/>
        <path id="XMLID_377_" class="st7" d="M1705.6 671.7L624.7 47.7l.9 3.4 1080.9 624.1z"/>
        <path id="XMLID_378_" class="st7" d="M1705.6 639.7L624.7 15.7l.9 3.4 1080.9 624.1z"/>
        <path id="XMLID_379_" class="st7" d="M1705.6 607.7L624.7-16.3l.9 3.4 1080.9 624.1z"/>
        <path id="XMLID_380_" class="st7" d="M1705.6 575.7L624.7-48.3l.9 3.4 1080.9 624.1z"/>
        <path id="XMLID_381_" class="st7" d="M1705.6 543.7L624.7-80.3l.9 3.4 1080.9 624.1z"/>
        <path id="XMLID_382_" class="st7" d="M1705.6 511.7l-1080.9-624 .9 3.4 1080.9 624.1z"/>
      </g>
    </g>
    <g id="Roof_1_">
      <path id="Right_3_" fill="#37313f" d="M1131.9 166.9L1420.4.2l2.1-.2L1876 533.1v.6l-287.8 168.8z"/>
      <path id="Left_1_" fill="#4a4750" d="M651.2 169.4L927.4 9.9 1422.5 0l-288.8 166.1-.3 3.2-482.1.7z"/>
      <g id="Barge">
        <path id="Right_4_" class="st10" d="M1582.8 709.3L1876 541.1v26l-287.8 166.2z"/>
        <path id="Front_2_" class="st11" d="M1134.2 200.2l454 533.2v-28.1l-454-533.1-483 3.2v28z"/>
      </g>
      <path id="Front_Left" fill="#655e6e" d="M651.2 179.4v-10l482.7-3.4.1.3.5 9.8-.3.1z"/>
      <path id="Front_Right" fill="#5c5666" d="M1134.2 176.2l-.3-10.2 454.3 533.3v10.1z"/>
      <path id="Right_Bottom" fill="#24202e" d="M1588.2 699.3L1876 533.1v10l-287.8 166.2z"/>
    </g>
  </g>
  <g id="Pathway">
    <path id="Front_3_" fill="#e7f3f7" d="M383.8 1099.3l3.6-.2 220.2 126.4v40l-223.8-129.3z"/>
    <path id="Top_1_" fill="#dce9ef" d="M991.4 748.5l223.9 129.2-607.7 350.8-223.8-129.2z"/>
  </g>
  <g id="Front_Steps">
    <g id="Right">
      <path id="XMLID_182_" fill="#26202d" d="M1279.2 766.9v73.9l-95.9 55.4-5.1-76.8z"/>
    </g>
    <path id="Botom_Step_Front" class="st18" d="M959.4 730v36.9l223.9 129.3v-36.9l-.1-2-222.3-127.8z"/>
    <path id="Bottom_Step_Top" class="st19" d="M1183.3 859.3L959.4 730l32-18.5h2.7L1214.4 838l.9 2.8z"/>
    <path id="Top_Step_Front" class="st18" d="M991.4 674.6v37l223.9 129.2-.1-36.9 1.1-.9-223.9-128.6z"/>
    <path id="Top_Step_Top" class="st19" d="M1215.3 803.9L991.4 674.6l64-36.9 223.8 129.2z"/>
  </g>
  <g id="Door">
    <g id="Frame_1_">
      <path id="Right_6_" fill="#5f8284" d="M1237.2 747.4l4.2-2.4-.2-199.3-25.9 7.8 4.4 176.6z"/>
      <path id="Top_3_" class="st10" d="M1229.4 553.5l11.8-7.8-143.6-82.9-4 2 2 6.8z"/>
      <path id="Front_5_" class="st11" d="M1093.6 464.8v199.6l7.8 4.6 57.7 1 70.3 72.8 7.8 4.6V547.7z"/>
    </g>
    <path id="Door_1_" fill="#312b39" d="M1101.4 479.6V669l128 73.8V553.5z"/>
    <g id="Handle">
      <path id="Right_5_" fill="#999" d="M1119.3 600.8l-10.6 6.1-1.6-2.4v-39.7l8.9-5h3.3v4l-7.6 4.5v29.4l7.6-.9z"/>
      <path id="Front_4_" fill="#b2b2b2" d="M1119.3 559.8l-3-1.7-10.6 6.1v41l3 1.7V566z"/>
      <path id="Inside" fill="#7f7f7f" d="M1116.3 595l3 1.8-7.6 4.4v-3.5"/>
    </g>
  </g>
  <g id="Lights">
    <g id="Arches">
      <g id="XMLID_216_">
        <path id="Arch_4_8_" class="st0" d="M799.5 640.2a2.5 2.5 0 0 1-2.5-2.5c0-39.7-21.1-84.2-47-99.2-9.6-5.5-18.6-6.2-26.1-1.9-11.2 6.5-17.9 23.5-17.9 45.6 0 1.4-1.1 2.5-2.5 2.5s-2.5-1.1-2.5-2.5c0-24.3 7.4-42.5 20.4-50 9-5.2 20-4.5 31.1 1.9 27.3 15.7 49.5 62.2 49.5 103.5 0 1.5-1.1 2.6-2.5 2.6z"/>
        <path id="Arch_3_8_" class="st0" d="M927.4 714a2.5 2.5 0 0 1-2.5-2.5c0-39.7-21.1-84.2-47-99.2-9.6-5.5-18.6-6.2-26.1-1.9C840.7 617 834 634 834 656.1c0 1.4-1.1 2.5-2.5 2.5s-2.5-1.1-2.5-2.5c0-24.3 7.4-42.5 20.4-50 9-5.2 20-4.5 31.1 1.9 27.3 15.7 49.5 62.2 49.5 103.5a2.6 2.6 0 0 1-2.6 2.5z"/>
        <path id="Arch_2_8_" class="st0" d="M1375.2 972.5a2.5 2.5 0 0 1-2.5-2.5c0-39.7-21.1-84.2-47-99.2-9.6-5.5-18.6-6.2-26.1-1.9-11.2 6.5-17.9 23.5-17.9 45.6 0 1.4-1.1 2.5-2.5 2.5s-2.5-1.1-2.5-2.5c0-24.3 7.4-42.5 20.4-50 9-5.2 20-4.5 31.1 1.9 27.3 15.7 49.5 62.2 49.5 103.5 0 1.5-1.2 2.6-2.5 2.6z"/>
        <path id="Arch_1_8_" class="st0" d="M1503.1 1046.4a2.5 2.5 0 0 1-2.5-2.5c0-39.7-21.1-84.2-47-99.2-9.6-5.5-18.6-6.2-26.1-1.9-11.2 6.5-17.9 23.5-17.9 45.6 0 1.4-1.1 2.5-2.5 2.5s-2.5-1.1-2.5-2.5c0-24.3 7.4-42.5 20.4-50 9-5.2 20-4.5 31.1 1.9 27.3 15.7 49.5 62.2 49.5 103.5 0 1.5-1.1 2.6-2.5 2.6z"/>
      </g>
    </g>
    <g id="Path">
      <path id="XMLID_184_" class="st25" d="M388.3 1096.7l567.2-327.5"/>
      <path id="XMLID_181_" class="st25" d="M612.2 1225.9l566.5-327.1"/>
    </g>
  </g>
</svg>
